<svg width="57" height="70" viewBox="0 0 57 70" fill="none" xmlns="http://www.w3.org/2000/svg">
<path d="M28.6008 28.6C35.67 28.6 41.4008 22.8692 41.4008 15.8C41.4008 8.73075 35.67 3 28.6008 3C21.5315 3 15.8008 8.73075 15.8008 15.8C15.8008 22.8692 21.5315 28.6 28.6008 28.6Z" stroke="#EB7373" stroke-width="5"/>
<path d="M54.1904 54.2C54.2 53.6752 54.2 53.1408 54.2 52.6C54.2 44.648 42.7376 38.2 28.6 38.2C14.4624 38.2 3 44.648 3 52.6C3 60.5519 3 66.9999 28.6 66.9999C35.7392 66.9999 40.888 66.4975 44.6 65.6015" stroke="#EB7373" stroke-width="5" stroke-linecap="round"/>
</svg>
