<svg width="56" height="68" viewBox="0 0 56 68" fill="none" xmlns="http://www.w3.org/2000/svg">
<path d="M53 18.5V61.9C53 62.7222 52.6708 63.5107 52.0847 64.092C51.4987 64.6734 50.7038 65 49.875 65H6.125C5.2962 65 4.50134 64.6734 3.91529 64.092C3.32924 63.5107 3 62.7222 3 61.9V6.1C3 5.27783 3.32924 4.48933 3.91529 3.90797C4.50134 3.32661 5.2962 3 6.125 3H37.375M53 18.5H37.375V3M53 18.5L37.375 3M17.0625 35.55H38.9375L31.125 27.8M38.9375 44.85H17.0625L24.875 52.6" stroke="#EB7373" stroke-width="5" stroke-linecap="round" stroke-linejoin="round"/>
</svg>
