<svg width="50" height="80" viewBox="0 0 50 80" fill="none" xmlns="http://www.w3.org/2000/svg">
<path d="M40 5C41.3261 5 42.5979 5.52678 43.5355 6.46447C44.4732 7.40215 45 8.67392 45 10V70C45 71.3261 44.4732 72.5979 43.5355 73.5355C42.5979 74.4732 41.3261 75 40 75H10C8.67392 75 7.40215 74.4732 6.46447 73.5355C5.52679 72.5979 5 71.3261 5 70V10C5 8.67392 5.52679 7.40215 6.46447 6.46447C7.40215 5.52678 8.67392 5 10 5H40ZM10 0C7.34784 0 4.8043 1.05357 2.92893 2.92893C1.05357 4.8043 0 7.34784 0 10V70C0 72.6522 1.05357 75.1957 2.92893 77.0711C4.8043 78.9464 7.34784 80 10 80H40C42.6522 80 45.1957 78.9464 47.0711 77.0711C48.9464 75.1957 50 72.6522 50 70V10C50 7.34784 48.9464 4.8043 47.0711 2.92893C45.1957 1.05357 42.6522 0 40 0L10 0Z" fill="#EB7373"/>
<path d="M25 70C26.3261 70 27.5979 69.4732 28.5355 68.5355C29.4732 67.5979 30 66.3261 30 65C30 63.6739 29.4732 62.4021 28.5355 61.4645C27.5979 60.5268 26.3261 60 25 60C23.6739 60 22.4021 60.5268 21.4645 61.4645C20.5268 62.4021 20 63.6739 20 65C20 66.3261 20.5268 67.5979 21.4645 68.5355C22.4021 69.4732 23.6739 70 25 70Z" fill="#EB7373"/>
</svg>
