<svg width="91" height="91" viewBox="0 0 91 91" fill="none" xmlns="http://www.w3.org/2000/svg">
<circle cx="45.5" cy="45.5" r="45.1412" fill="#D33434" stroke="white" stroke-width="0.71752"/>
<path d="M35.5938 49.9648L35.5939 71.0688" stroke="white" stroke-width="1.79354" stroke-linecap="round"/>
<path d="M35.5939 20.0129L35.5937 35.9156" stroke="white" stroke-width="1.79354" stroke-linecap="round"/>
<path d="M44.1992 56.4216L44.1993 71.0688" stroke="white" stroke-width="1.79354" stroke-linecap="round"/>
<path d="M44.5586 20.551L44.2 42.4322" stroke="white" stroke-width="1.79354" stroke-linecap="round"/>
<path d="M54.2461 49.6071L54.2462 71.0697M54.2463 20.1921L54.2463 34.66" stroke="white" stroke-width="1.79354" stroke-linecap="round"/>
<path d="M62.8516 68.2588L62.8516 71.1284" stroke="white" stroke-width="1.79354" stroke-linecap="round"/>
<path d="M27.3438 67.9001L27.3438 70.7698" stroke="white" stroke-width="1.79354" stroke-linecap="round"/>
<path d="M62.8516 42.2527L62.8516 57.139" stroke="white" stroke-width="1.79354" stroke-linecap="round"/>
<path d="M27.3438 41.894L27.3438 56.7804" stroke="white" stroke-width="1.79354" stroke-linecap="round"/>
<path d="M62.8516 20.1921L62.8516 28.9805" stroke="white" stroke-width="1.79354" stroke-linecap="round"/>
<path d="M27.3438 19.8335L27.3438 28.6218" stroke="white" stroke-width="1.79354" stroke-linecap="round"/>
<circle cx="35.7678" cy="42.6115" r="3.04901" fill="white"/>
<circle cx="44.381" cy="49.7856" r="3.04901" fill="white"/>
<circle cx="54.0646" cy="42.6115" r="3.04901" fill="white"/>
<circle cx="62.674" cy="35.4372" r="3.04901" fill="white"/>
<circle cx="27.1623" cy="35.0786" r="3.04901" fill="white"/>
<circle cx="35.7737" cy="42.6116" r="1.97289" fill="#D33434"/>
<circle cx="44.3791" cy="49.7856" r="1.97289" fill="#D33434"/>
<circle cx="54.1044" cy="42.6806" r="2.0419" fill="#D33434"/>
<circle cx="62.6721" cy="35.4372" r="1.97289" fill="#D33434"/>
<circle cx="27.1643" cy="35.0786" r="1.97289" fill="#D33434"/>
<circle cx="62.8501" cy="62.8784" r="2.86966" fill="white"/>
<circle cx="62.8521" cy="62.8785" r="1.79354" fill="#D33434"/>
<circle cx="27.3384" cy="62.5196" r="2.86966" fill="white"/>
<circle cx="27.3404" cy="62.5196" r="1.79354" fill="#D33434"/>
</svg>
